<svg width="21.358in" height="13.097in" viewBox="0 0 21.358 13.097" xmlns="http://www.w3.org/2000/svg" version="1.1" preserveAspectRatio="xMidYMid meet"><g id="svgGroup" stroke-linecap="round" fill-rule="evenodd" font-size="9pt" stroke="#000" stroke-width="0.25mm" fill="none" style="stroke:#000;stroke-width:0.25mm;fill:none"><path d="M 0 6.611 L 0 7.324 L 0.118 7.324 L 0.118 8.047 L 0 8.047 L 0 8.77 L 0.118 8.77 L 0.118 9.493 L 0 9.493 L 0 10.215 L 0.118 10.215 L 0.118 10.938 L 0 10.938 L 0 11.661 L 0.118 11.661 L 0.118 12.384 L 0 12.384 L 0 13.097 L 0.868 13.097 L 0.868 12.979 L 1.591 12.979 L 1.591 13.097 L 2.313 13.097 L 2.313 12.979 L 3.036 12.979 L 3.036 13.097 L 3.759 13.097 L 3.759 12.979 L 4.482 12.979 L 4.482 13.097 L 5.204 13.097 L 5.204 12.979 L 5.927 12.979 L 5.927 13.097 L 6.65 13.097 L 6.65 12.979 L 7.373 12.979 L 7.373 13.097 L 8.095 13.097 L 8.095 12.979 L 8.818 12.979 L 8.818 13.097 L 9.686 13.097 L 9.686 12.384 L 9.568 12.384 L 9.568 11.661 L 9.686 11.661 L 9.686 10.938 L 9.568 10.938 L 9.568 10.215 L 9.686 10.215 L 9.686 9.493 L 9.568 9.493 L 9.568 8.77 L 9.686 8.77 L 9.686 8.047 L 9.568 8.047 L 9.568 7.324 L 9.686 7.324 L 9.686 6.611 L 8.818 6.611 L 8.818 6.729 L 8.095 6.729 L 8.095 6.611 L 7.373 6.611 L 7.373 6.729 L 6.65 6.729 L 6.65 6.611 L 5.927 6.611 L 5.927 6.729 L 5.204 6.729 L 5.204 6.611 L 4.482 6.611 L 4.482 6.729 L 3.759 6.729 L 3.759 6.611 L 3.036 6.611 L 3.036 6.729 L 2.313 6.729 L 2.313 6.611 L 1.591 6.611 L 1.591 6.729 L 0.868 6.729 L 0.868 6.611 L 0 6.611 Z" id="front_outsideCutPath" stroke="#FF0000" stroke-width="0.1" style="stroke:#FF0000;stroke-width:0.1" vector-effect="non-scaling-stroke"/><path d="M 5.788 10.344 L 5.683 10.344 L 5.683 9.895 A 0.297 0.297 0 0 0 5.68 9.848 Q 5.672 9.798 5.645 9.768 A 0.119 0.119 0 0 0 5.596 9.737 Q 5.565 9.726 5.524 9.726 A 0.318 0.318 0 0 0 5.464 9.732 Q 5.4 9.744 5.364 9.785 A 0.172 0.172 0 0 0 5.334 9.837 Q 5.316 9.885 5.314 9.957 A 0.674 0.674 0 0 0 5.313 9.98 L 5.313 10.344 L 5.208 10.344 L 5.208 9.65 L 5.294 9.65 L 5.311 9.745 L 5.316 9.745 A 0.213 0.213 0 0 1 5.399 9.669 A 0.256 0.256 0 0 1 5.406 9.665 Q 5.465 9.637 5.536 9.637 A 0.415 0.415 0 0 1 5.607 9.643 Q 5.645 9.649 5.675 9.664 A 0.189 0.189 0 0 1 5.725 9.698 Q 5.773 9.744 5.785 9.832 A 0.459 0.459 0 0 1 5.788 9.891 L 5.788 10.344 Z M 3.768 9.65 L 3.768 9.731 L 3.592 9.731 L 3.592 10.344 L 3.487 10.344 L 3.487 9.731 L 3.362 9.731 L 3.362 9.684 L 3.487 9.646 L 3.487 9.607 A 0.426 0.426 0 0 1 3.497 9.511 Q 3.534 9.351 3.71 9.351 A 0.339 0.339 0 0 1 3.758 9.355 Q 3.795 9.36 3.839 9.374 L 3.812 9.458 A 0.511 0.511 0 0 0 3.772 9.447 Q 3.752 9.442 3.735 9.44 A 0.226 0.226 0 0 0 3.708 9.438 A 0.142 0.142 0 0 0 3.674 9.442 A 0.091 0.091 0 0 0 3.62 9.478 Q 3.594 9.514 3.592 9.589 A 0.497 0.497 0 0 0 3.592 9.605 L 3.592 9.65 L 3.768 9.65 Z M 6.324 10.257 L 6.324 10.338 Q 6.306 10.346 6.273 10.351 Q 6.24 10.357 6.213 10.357 Q 6.053 10.357 6.02 10.222 A 0.33 0.33 0 0 1 6.012 10.144 L 6.012 9.731 L 5.912 9.731 L 5.912 9.681 L 6.012 9.637 L 6.056 9.489 L 6.117 9.489 L 6.117 9.65 L 6.319 9.65 L 6.319 9.731 L 6.117 9.731 L 6.117 10.14 A 0.212 0.212 0 0 0 6.12 10.177 Q 6.124 10.198 6.132 10.214 A 0.102 0.102 0 0 0 6.147 10.236 A 0.098 0.098 0 0 0 6.207 10.268 A 0.141 0.141 0 0 0 6.229 10.27 A 0.345 0.345 0 0 0 6.279 10.266 A 0.32 0.32 0 0 0 6.282 10.266 A 0.569 0.569 0 0 0 6.298 10.263 Q 6.312 10.26 6.322 10.258 A 0.164 0.164 0 0 0 6.324 10.257 Z M 4.295 9.645 L 4.28 9.742 A 0.463 0.463 0 0 0 4.247 9.736 Q 4.224 9.733 4.204 9.733 A 0.182 0.182 0 0 0 4.07 9.791 A 0.249 0.249 0 0 0 4.06 9.801 A 0.24 0.24 0 0 0 4.002 9.936 A 0.319 0.319 0 0 0 4 9.971 L 4 10.344 L 3.895 10.344 L 3.895 9.65 L 3.982 9.65 L 3.994 9.778 L 3.999 9.778 A 0.355 0.355 0 0 1 4.039 9.722 A 0.271 0.271 0 0 1 4.092 9.674 Q 4.147 9.637 4.212 9.637 A 0.483 0.483 0 0 1 4.255 9.639 A 0.352 0.352 0 0 1 4.295 9.645 Z M 5.014 10.102 A 0.543 0.543 0 0 0 5.024 9.996 Q 5.024 9.831 4.938 9.734 Q 4.852 9.637 4.707 9.637 A 0.408 0.408 0 0 0 4.633 9.643 A 0.278 0.278 0 0 0 4.471 9.732 A 0.29 0.29 0 0 0 4.435 9.781 Q 4.408 9.829 4.396 9.891 A 0.546 0.546 0 0 0 4.386 9.996 A 0.526 0.526 0 0 0 4.393 10.081 A 0.389 0.389 0 0 0 4.425 10.187 A 0.346 0.346 0 0 0 4.433 10.202 A 0.285 0.285 0 0 0 4.537 10.313 Q 4.609 10.357 4.702 10.357 A 0.408 0.408 0 0 0 4.773 10.351 A 0.28 0.28 0 0 0 4.938 10.261 A 0.293 0.293 0 0 0 4.973 10.213 Q 5.002 10.165 5.014 10.102 Z M 4.495 9.996 A 0.532 0.532 0 0 0 4.5 10.072 Q 4.506 10.111 4.517 10.142 A 0.221 0.221 0 0 0 4.548 10.199 A 0.172 0.172 0 0 0 4.66 10.265 A 0.261 0.261 0 0 0 4.705 10.269 A 0.244 0.244 0 0 0 4.769 10.261 A 0.17 0.17 0 0 0 4.861 10.199 Q 4.901 10.148 4.911 10.06 A 0.554 0.554 0 0 0 4.915 9.996 A 0.525 0.525 0 0 0 4.91 9.921 Q 4.904 9.883 4.893 9.853 A 0.216 0.216 0 0 0 4.861 9.795 A 0.173 0.173 0 0 0 4.754 9.731 A 0.265 0.265 0 0 0 4.703 9.726 A 0.25 0.25 0 0 0 4.641 9.734 A 0.167 0.167 0 0 0 4.548 9.794 A 0.217 0.217 0 0 0 4.514 9.859 Q 4.504 9.889 4.499 9.926 A 0.556 0.556 0 0 0 4.495 9.996 Z" id="front_labelLayer" stroke="#777777" fill="#777777" style="stroke:#777777;fill:#777777" vector-effect="non-scaling-stroke"/><path d="M 9.929 6.611 L 9.929 7.324 L 9.811 7.324 L 9.811 8.047 L 9.929 8.047 L 9.929 8.77 L 9.811 8.77 L 9.811 9.493 L 9.929 9.493 L 9.929 10.215 L 9.811 10.215 L 9.811 10.938 L 9.929 10.938 L 9.929 11.661 L 9.811 11.661 L 9.811 12.384 L 9.929 12.384 L 9.929 13.097 L 10.318 13.097 L 10.318 12.979 L 11.04 12.979 L 11.04 13.097 L 11.429 13.097 L 11.429 12.384 L 11.547 12.384 L 11.547 11.661 L 11.429 11.661 L 11.429 10.938 L 11.547 10.938 L 11.547 10.215 L 11.429 10.215 L 11.429 9.493 L 11.547 9.493 L 11.547 8.77 L 11.429 8.77 L 11.429 8.047 L 11.547 8.047 L 11.547 7.324 L 11.429 7.324 L 11.429 6.611 L 11.04 6.611 L 11.04 6.729 L 10.318 6.729 L 10.318 6.611 L 9.929 6.611 Z" id="left_outsideCutPath" stroke="#FF0000" stroke-width="0.1" style="stroke:#FF0000;stroke-width:0.1" vector-effect="non-scaling-stroke"/><path d="M 10.803 9.799 L 10.803 9.821 L 10.755 9.821 L 10.755 9.985 L 10.727 9.985 L 10.727 9.821 L 10.694 9.821 L 10.694 9.808 L 10.727 9.798 L 10.727 9.788 A 0.114 0.114 0 0 1 10.73 9.762 Q 10.738 9.727 10.772 9.721 A 0.086 0.086 0 0 1 10.787 9.719 A 0.091 0.091 0 0 1 10.8 9.72 Q 10.806 9.721 10.813 9.723 A 0.182 0.182 0 0 1 10.821 9.725 L 10.814 9.748 A 0.137 0.137 0 0 0 10.804 9.745 Q 10.794 9.743 10.786 9.743 A 0.038 0.038 0 0 0 10.777 9.744 A 0.024 0.024 0 0 0 10.763 9.753 A 0.033 0.033 0 0 0 10.759 9.762 Q 10.755 9.772 10.755 9.787 L 10.755 9.799 L 10.803 9.799 Z M 10.671 9.88 L 10.671 9.897 L 10.543 9.897 Q 10.544 9.93 10.559 9.947 A 0.051 0.051 0 0 0 10.586 9.962 A 0.077 0.077 0 0 0 10.603 9.964 A 0.149 0.149 0 0 0 10.659 9.953 A 0.171 0.171 0 0 0 10.663 9.951 L 10.663 9.976 A 0.169 0.169 0 0 1 10.647 9.982 A 0.129 0.129 0 0 1 10.635 9.986 A 0.118 0.118 0 0 1 10.623 9.988 Q 10.617 9.988 10.611 9.988 A 0.229 0.229 0 0 1 10.602 9.989 A 0.109 0.109 0 0 1 10.575 9.985 A 0.077 0.077 0 0 1 10.537 9.963 Q 10.514 9.938 10.514 9.894 Q 10.514 9.857 10.528 9.833 A 0.083 0.083 0 0 1 10.536 9.822 A 0.072 0.072 0 0 1 10.588 9.796 A 0.1 0.1 0 0 1 10.595 9.796 Q 10.63 9.796 10.65 9.819 A 0.079 0.079 0 0 1 10.668 9.855 A 0.115 0.115 0 0 1 10.671 9.88 Z M 10.91 9.964 A 0.092 0.092 0 0 1 10.896 9.965 A 0.038 0.038 0 0 1 10.891 9.965 A 0.026 0.026 0 0 1 10.875 9.956 Q 10.869 9.95 10.867 9.94 A 0.057 0.057 0 0 1 10.867 9.931 L 10.867 9.821 L 10.92 9.821 L 10.92 9.799 L 10.867 9.799 L 10.867 9.756 L 10.85 9.756 L 10.838 9.796 L 10.812 9.808 L 10.812 9.821 L 10.838 9.821 L 10.838 9.932 Q 10.838 9.976 10.871 9.986 A 0.074 0.074 0 0 0 10.892 9.989 A 0.088 0.088 0 0 0 10.9 9.988 A 0.122 0.122 0 0 0 10.908 9.987 A 0.105 0.105 0 0 0 10.91 9.987 Q 10.915 9.986 10.919 9.985 A 0.028 0.028 0 0 0 10.922 9.983 L 10.922 9.962 A 0.059 0.059 0 0 1 10.918 9.963 A 0.098 0.098 0 0 0 10.918 9.963 M 10.464 9.721 L 10.464 9.985 L 10.436 9.985 L 10.436 9.721 L 10.464 9.721 Z M 10.543 9.874 L 10.641 9.874 A 0.096 0.096 0 0 0 10.639 9.859 Q 10.638 9.851 10.635 9.844 A 0.044 0.044 0 0 0 10.629 9.834 A 0.039 0.039 0 0 0 10.606 9.82 A 0.058 0.058 0 0 0 10.595 9.819 A 0.055 0.055 0 0 0 10.579 9.822 A 0.043 0.043 0 0 0 10.559 9.834 A 0.056 0.056 0 0 0 10.548 9.853 Q 10.545 9.86 10.544 9.87 A 0.106 0.106 0 0 0 10.543 9.874 Z M 10.911 9.964 Q 10.913 9.964 10.915 9.963" id="left_labelLayer" stroke="#777777" fill="#777777" style="stroke:#777777;fill:#777777" vector-effect="non-scaling-stroke"/><path d="M 11.79 11.479 L 11.79 11.868 L 11.672 11.868 L 11.672 12.59 L 11.79 12.59 L 11.79 12.979 L 12.54 12.979 L 12.54 13.097 L 13.263 13.097 L 13.263 12.979 L 13.985 12.979 L 13.985 13.097 L 14.708 13.097 L 14.708 12.979 L 15.431 12.979 L 15.431 13.097 L 16.154 13.097 L 16.154 12.979 L 16.876 12.979 L 16.876 13.097 L 17.599 13.097 L 17.599 12.979 L 18.322 12.979 L 18.322 13.097 L 19.045 13.097 L 19.045 12.979 L 19.767 12.979 L 19.767 13.097 L 20.49 13.097 L 20.49 12.979 L 21.24 12.979 L 21.24 12.59 L 21.358 12.59 L 21.358 11.868 L 21.24 11.868 L 21.24 11.479 L 20.49 11.479 L 20.49 11.361 L 19.767 11.361 L 19.767 11.479 L 19.045 11.479 L 19.045 11.361 L 18.322 11.361 L 18.322 11.479 L 17.599 11.479 L 17.599 11.361 L 16.876 11.361 L 16.876 11.479 L 16.154 11.479 L 16.154 11.361 L 15.431 11.361 L 15.431 11.479 L 14.708 11.479 L 14.708 11.361 L 13.985 11.361 L 13.985 11.479 L 13.263 11.479 L 13.263 11.361 L 12.54 11.361 L 12.54 11.479 L 11.79 11.479 Z" id="top_outsideCutPath" stroke="#FF0000" stroke-width="0.1" style="stroke:#FF0000;stroke-width:0.1" vector-effect="non-scaling-stroke"/><path d="M 16.64 12.278 L 16.638 12.278 A 0.266 0.266 0 0 1 16.639 12.298 A 0.223 0.223 0 0 1 16.64 12.309 L 16.64 12.385 L 16.612 12.385 L 16.612 12.116 L 16.635 12.116 L 16.638 12.141 L 16.64 12.141 A 0.076 0.076 0 0 1 16.651 12.129 A 0.059 0.059 0 0 1 16.665 12.119 A 0.07 0.07 0 0 1 16.685 12.113 A 0.091 0.091 0 0 1 16.698 12.113 Q 16.735 12.113 16.755 12.138 Q 16.772 12.158 16.775 12.193 A 0.183 0.183 0 0 1 16.775 12.209 Q 16.775 12.254 16.755 12.28 Q 16.734 12.305 16.698 12.305 A 0.085 0.085 0 0 1 16.677 12.303 A 0.074 0.074 0 0 1 16.665 12.298 Q 16.65 12.292 16.64 12.278 Z M 16.353 12.281 A 0.092 0.092 0 0 1 16.339 12.282 A 0.038 0.038 0 0 1 16.334 12.281 A 0.026 0.026 0 0 1 16.317 12.273 Q 16.312 12.267 16.31 12.257 A 0.057 0.057 0 0 1 16.31 12.247 L 16.31 12.138 L 16.363 12.138 L 16.363 12.116 L 16.31 12.116 L 16.31 12.073 L 16.293 12.073 L 16.281 12.113 L 16.255 12.124 L 16.255 12.138 L 16.281 12.138 L 16.281 12.248 Q 16.281 12.292 16.314 12.302 A 0.074 0.074 0 0 0 16.335 12.305 A 0.088 0.088 0 0 0 16.343 12.305 A 0.122 0.122 0 0 0 16.351 12.304 A 0.105 0.105 0 0 0 16.353 12.303 Q 16.358 12.302 16.362 12.301 A 0.028 0.028 0 0 0 16.365 12.3 L 16.365 12.279 A 0.059 0.059 0 0 1 16.361 12.279 A 0.098 0.098 0 0 0 16.361 12.279 M 16.56 12.237 A 0.145 0.145 0 0 0 16.562 12.209 Q 16.562 12.191 16.558 12.176 A 0.088 0.088 0 0 0 16.539 12.138 A 0.074 0.074 0 0 0 16.505 12.116 A 0.095 0.095 0 0 0 16.477 12.113 A 0.109 0.109 0 0 0 16.458 12.114 A 0.074 0.074 0 0 0 16.414 12.138 Q 16.399 12.155 16.394 12.18 A 0.146 0.146 0 0 0 16.392 12.209 A 0.141 0.141 0 0 0 16.393 12.231 A 0.104 0.104 0 0 0 16.402 12.26 A 0.092 0.092 0 0 0 16.404 12.264 A 0.076 0.076 0 0 0 16.432 12.293 A 0.078 0.078 0 0 0 16.45 12.301 A 0.09 0.09 0 0 0 16.476 12.305 A 0.109 0.109 0 0 0 16.495 12.304 A 0.075 0.075 0 0 0 16.539 12.28 Q 16.555 12.263 16.56 12.237 Z M 16.421 12.209 A 0.142 0.142 0 0 0 16.422 12.229 Q 16.425 12.25 16.435 12.263 A 0.046 0.046 0 0 0 16.465 12.281 A 0.07 0.07 0 0 0 16.477 12.282 A 0.065 0.065 0 0 0 16.494 12.279 A 0.045 0.045 0 0 0 16.519 12.263 A 0.06 0.06 0 0 0 16.528 12.245 Q 16.533 12.23 16.533 12.209 A 0.14 0.14 0 0 0 16.532 12.189 Q 16.529 12.168 16.519 12.155 Q 16.504 12.136 16.477 12.136 Q 16.449 12.136 16.435 12.155 Q 16.425 12.168 16.422 12.19 A 0.149 0.149 0 0 0 16.421 12.209 Z M 16.64 12.202 L 16.64 12.209 Q 16.64 12.242 16.649 12.259 A 0.042 0.042 0 0 0 16.653 12.265 A 0.041 0.041 0 0 0 16.674 12.279 Q 16.68 12.281 16.689 12.281 A 0.09 0.09 0 0 0 16.695 12.282 A 0.047 0.047 0 0 0 16.713 12.278 Q 16.724 12.274 16.731 12.264 A 0.056 0.056 0 0 0 16.732 12.262 Q 16.746 12.243 16.746 12.208 Q 16.746 12.174 16.732 12.155 A 0.044 0.044 0 0 0 16.7 12.137 A 0.061 0.061 0 0 0 16.694 12.136 Q 16.676 12.136 16.664 12.143 A 0.037 0.037 0 0 0 16.653 12.152 Q 16.64 12.168 16.64 12.202 Z M 16.354 12.281 Q 16.356 12.28 16.358 12.28" id="top_labelLayer" stroke="#777777" fill="#777777" style="stroke:#777777;fill:#777777" vector-effect="non-scaling-stroke"/><path d="M 0 0 L 0 0.713 L 0.118 0.713 L 0.118 1.436 L 0 1.436 L 0 2.159 L 0.118 2.159 L 0.118 2.882 L 0 2.882 L 0 3.604 L 0.118 3.604 L 0.118 4.327 L 0 4.327 L 0 5.05 L 0.118 5.05 L 0.118 5.773 L 0 5.773 L 0 6.486 L 0.868 6.486 L 0.868 6.368 L 1.591 6.368 L 1.591 6.486 L 2.313 6.486 L 2.313 6.368 L 3.036 6.368 L 3.036 6.486 L 3.759 6.486 L 3.759 6.368 L 4.482 6.368 L 4.482 6.486 L 5.204 6.486 L 5.204 6.368 L 5.927 6.368 L 5.927 6.486 L 6.65 6.486 L 6.65 6.368 L 7.373 6.368 L 7.373 6.486 L 8.095 6.486 L 8.095 6.368 L 8.818 6.368 L 8.818 6.486 L 9.686 6.486 L 9.686 5.773 L 9.568 5.773 L 9.568 5.05 L 9.686 5.05 L 9.686 4.327 L 9.568 4.327 L 9.568 3.604 L 9.686 3.604 L 9.686 2.882 L 9.568 2.882 L 9.568 2.159 L 9.686 2.159 L 9.686 1.436 L 9.568 1.436 L 9.568 0.713 L 9.686 0.713 L 9.686 0 L 8.818 0 L 8.818 0.118 L 8.095 0.118 L 8.095 0 L 7.373 0 L 7.373 0.118 L 6.65 0.118 L 6.65 0 L 5.927 0 L 5.927 0.118 L 5.204 0.118 L 5.204 0 L 4.482 0 L 4.482 0.118 L 3.759 0.118 L 3.759 0 L 3.036 0 L 3.036 0.118 L 2.313 0.118 L 2.313 0 L 1.591 0 L 1.591 0.118 L 0.868 0.118 L 0.868 0 L 0 0 Z" id="back_outsideCutPath" stroke="#FF0000" stroke-width="0.1" style="stroke:#FF0000;stroke-width:0.1" vector-effect="non-scaling-stroke"/><path d="M 5.731 3.374 L 5.736 3.374 A 0.622 0.622 0 0 1 5.751 3.353 Q 5.769 3.33 5.795 3.301 A 2.259 2.259 0 0 1 5.819 3.273 L 6.043 3.035 L 6.168 3.035 L 5.887 3.331 L 6.188 3.729 L 6.06 3.729 L 5.815 3.401 L 5.736 3.47 L 5.736 3.729 L 5.632 3.729 L 5.632 2.744 L 5.736 2.744 L 5.736 3.266 A 0.7 0.7 0 0 1 5.736 3.286 Q 5.735 3.319 5.731 3.374 Z M 3.603 3.64 L 3.596 3.64 L 3.574 3.729 L 3.498 3.729 L 3.498 2.744 L 3.603 2.744 L 3.603 2.983 A 2.192 2.192 0 0 1 3.602 3.057 Q 3.601 3.092 3.599 3.124 A 1.33 1.33 0 0 1 3.598 3.128 L 3.603 3.128 A 0.239 0.239 0 0 1 3.778 3.026 A 0.359 0.359 0 0 1 3.821 3.024 A 0.321 0.321 0 0 1 3.912 3.036 A 0.241 0.241 0 0 1 4.034 3.117 A 0.31 0.31 0 0 1 4.088 3.222 Q 4.11 3.291 4.11 3.382 A 0.616 0.616 0 0 1 4.101 3.485 Q 4.085 3.584 4.033 3.647 A 0.249 0.249 0 0 1 3.856 3.74 A 0.357 0.357 0 0 1 3.821 3.742 A 0.319 0.319 0 0 1 3.741 3.732 A 0.277 0.277 0 0 1 3.697 3.717 Q 3.641 3.692 3.603 3.64 Z M 4.798 3.729 L 4.72 3.729 L 4.699 3.631 L 4.694 3.631 Q 4.642 3.696 4.591 3.719 Q 4.539 3.742 4.462 3.742 A 0.323 0.323 0 0 1 4.396 3.736 Q 4.356 3.727 4.325 3.708 A 0.181 0.181 0 0 1 4.3 3.689 A 0.173 0.173 0 0 1 4.248 3.598 A 0.265 0.265 0 0 1 4.241 3.538 A 0.182 0.182 0 0 1 4.345 3.366 Q 4.428 3.322 4.578 3.317 L 4.695 3.313 L 4.695 3.27 A 0.302 0.302 0 0 0 4.692 3.227 Q 4.685 3.177 4.66 3.15 Q 4.632 3.118 4.577 3.112 A 0.26 0.26 0 0 0 4.548 3.111 Q 4.478 3.111 4.394 3.145 A 0.704 0.704 0 0 0 4.351 3.164 L 4.319 3.083 A 0.485 0.485 0 0 1 4.413 3.045 A 0.551 0.551 0 0 1 4.432 3.04 Q 4.493 3.024 4.554 3.024 A 0.444 0.444 0 0 1 4.622 3.029 Q 4.696 3.04 4.738 3.079 Q 4.798 3.134 4.798 3.256 L 4.798 3.729 Z M 5.478 3.059 L 5.445 3.148 A 0.468 0.468 0 0 0 5.395 3.131 A 0.558 0.558 0 0 0 5.369 3.125 Q 5.328 3.116 5.297 3.116 Q 5.085 3.116 5.085 3.386 A 0.509 0.509 0 0 0 5.09 3.46 Q 5.101 3.535 5.137 3.582 A 0.167 0.167 0 0 0 5.245 3.647 A 0.254 0.254 0 0 0 5.29 3.65 A 0.44 0.44 0 0 0 5.411 3.633 A 0.543 0.543 0 0 0 5.468 3.613 L 5.468 3.706 A 0.299 0.299 0 0 1 5.394 3.732 Q 5.361 3.739 5.321 3.741 A 0.576 0.576 0 0 1 5.292 3.742 Q 5.141 3.742 5.059 3.649 A 0.304 0.304 0 0 1 4.995 3.533 Q 4.981 3.487 4.978 3.432 A 0.636 0.636 0 0 1 4.976 3.387 Q 4.976 3.261 5.02 3.176 A 0.29 0.29 0 0 1 5.06 3.118 A 0.272 0.272 0 0 1 5.209 3.032 A 0.413 0.413 0 0 1 5.299 3.023 A 0.474 0.474 0 0 1 5.399 3.033 Q 5.431 3.04 5.455 3.049 A 0.208 0.208 0 0 1 5.477 3.058 Z M 3.692 3.138 A 0.14 0.14 0 0 0 3.651 3.174 Q 3.609 3.228 3.604 3.347 A 0.81 0.81 0 0 0 3.603 3.382 A 0.695 0.695 0 0 0 3.607 3.454 Q 3.616 3.545 3.652 3.591 Q 3.696 3.648 3.787 3.653 A 0.338 0.338 0 0 0 3.809 3.654 A 0.21 0.21 0 0 0 3.868 3.646 A 0.151 0.151 0 0 0 3.953 3.583 A 0.241 0.241 0 0 0 3.983 3.519 Q 4.001 3.461 4.001 3.38 A 0.621 0.621 0 0 0 3.997 3.31 Q 3.988 3.232 3.958 3.185 A 0.174 0.174 0 0 0 3.953 3.178 A 0.153 0.153 0 0 0 3.855 3.117 A 0.243 0.243 0 0 0 3.806 3.112 Q 3.736 3.112 3.692 3.138 Z M 4.693 3.451 L 4.693 3.388 L 4.588 3.392 A 0.772 0.772 0 0 0 4.526 3.397 Q 4.448 3.406 4.407 3.431 A 0.112 0.112 0 0 0 4.353 3.513 A 0.166 0.166 0 0 0 4.351 3.539 Q 4.351 3.596 4.386 3.626 A 0.114 0.114 0 0 0 4.429 3.648 Q 4.452 3.655 4.483 3.655 A 0.289 0.289 0 0 0 4.545 3.649 Q 4.589 3.639 4.621 3.615 A 0.176 0.176 0 0 0 4.637 3.601 Q 4.693 3.548 4.693 3.452 A 0.353 0.353 0 0 0 4.693 3.451 Z" id="back_labelLayer" stroke="#777777" fill="#777777" style="stroke:#777777;fill:#777777" vector-effect="non-scaling-stroke"/><path d="M 9.929 0 L 9.929 0.713 L 9.811 0.713 L 9.811 1.436 L 9.929 1.436 L 9.929 2.159 L 9.811 2.159 L 9.811 2.882 L 9.929 2.882 L 9.929 3.604 L 9.811 3.604 L 9.811 4.327 L 9.929 4.327 L 9.929 5.05 L 9.811 5.05 L 9.811 5.773 L 9.929 5.773 L 9.929 6.486 L 10.318 6.486 L 10.318 6.368 L 11.04 6.368 L 11.04 6.486 L 11.429 6.486 L 11.429 5.773 L 11.547 5.773 L 11.547 5.05 L 11.429 5.05 L 11.429 4.327 L 11.547 4.327 L 11.547 3.604 L 11.429 3.604 L 11.429 2.882 L 11.547 2.882 L 11.547 2.159 L 11.429 2.159 L 11.429 1.436 L 11.547 1.436 L 11.547 0.713 L 11.429 0.713 L 11.429 0 L 11.04 0 L 11.04 0.118 L 10.318 0.118 L 10.318 0 L 9.929 0 Z" id="right_outsideCutPath" stroke="#FF0000" stroke-width="0.1" style="stroke:#FF0000;stroke-width:0.1" vector-effect="non-scaling-stroke"/><path d="M 10.895 3.333 L 10.867 3.333 L 10.867 3.213 Q 10.867 3.19 10.856 3.179 A 0.032 0.032 0 0 0 10.843 3.171 Q 10.838 3.169 10.832 3.168 A 0.075 0.075 0 0 0 10.824 3.168 A 0.085 0.085 0 0 0 10.808 3.169 Q 10.799 3.171 10.792 3.175 A 0.039 0.039 0 0 0 10.781 3.184 A 0.047 0.047 0 0 0 10.773 3.198 Q 10.768 3.213 10.768 3.236 L 10.768 3.333 L 10.74 3.333 L 10.74 3.069 L 10.768 3.069 L 10.768 3.149 Q 10.768 3.164 10.766 3.173 L 10.768 3.173 A 0.056 0.056 0 0 1 10.788 3.154 A 0.069 0.069 0 0 1 10.792 3.152 A 0.072 0.072 0 0 1 10.815 3.145 A 0.091 0.091 0 0 1 10.827 3.144 Q 10.861 3.144 10.878 3.161 A 0.049 0.049 0 0 1 10.89 3.179 Q 10.893 3.187 10.894 3.197 A 0.122 0.122 0 0 1 10.895 3.212 L 10.895 3.333 Z M 10.637 3.147 L 10.701 3.147 L 10.701 3.165 L 10.667 3.169 A 0.046 0.046 0 0 1 10.671 3.175 Q 10.673 3.179 10.676 3.185 A 0.054 0.054 0 0 1 10.679 3.198 A 0.07 0.07 0 0 1 10.679 3.206 A 0.065 0.065 0 0 1 10.676 3.226 A 0.052 0.052 0 0 1 10.661 3.25 Q 10.644 3.265 10.616 3.266 A 0.122 0.122 0 0 1 10.609 3.266 A 0.09 0.09 0 0 1 10.599 3.266 A 0.076 0.076 0 0 1 10.594 3.265 A 0.05 0.05 0 0 0 10.586 3.27 Q 10.582 3.273 10.579 3.277 A 0.021 0.021 0 0 0 10.576 3.289 A 0.015 0.015 0 0 0 10.577 3.294 A 0.012 0.012 0 0 0 10.582 3.3 Q 10.587 3.303 10.598 3.304 A 0.107 0.107 0 0 0 10.604 3.304 L 10.637 3.304 A 0.115 0.115 0 0 1 10.654 3.305 Q 10.663 3.306 10.671 3.309 A 0.051 0.051 0 0 1 10.683 3.316 A 0.041 0.041 0 0 1 10.698 3.343 A 0.062 0.062 0 0 1 10.699 3.353 A 0.061 0.061 0 0 1 10.696 3.374 Q 10.69 3.39 10.674 3.4 A 0.084 0.084 0 0 1 10.653 3.41 Q 10.632 3.417 10.602 3.417 A 0.158 0.158 0 0 1 10.581 3.415 Q 10.57 3.414 10.561 3.411 A 0.065 0.065 0 0 1 10.546 3.403 Q 10.527 3.39 10.526 3.368 A 0.059 0.059 0 0 1 10.526 3.365 A 0.043 0.043 0 0 1 10.537 3.335 A 0.049 0.049 0 0 1 10.554 3.323 A 0.07 0.07 0 0 1 10.568 3.319 A 0.029 0.029 0 0 1 10.556 3.309 A 0.035 0.035 0 0 1 10.556 3.309 A 0.026 0.026 0 0 1 10.551 3.295 A 0.032 0.032 0 0 1 10.551 3.293 A 0.032 0.032 0 0 1 10.552 3.282 A 0.029 0.029 0 0 1 10.556 3.275 A 0.04 0.04 0 0 1 10.561 3.269 Q 10.564 3.266 10.568 3.264 A 0.088 0.088 0 0 1 10.573 3.26 A 0.049 0.049 0 0 1 10.552 3.243 A 0.061 0.061 0 0 1 10.55 3.24 A 0.058 0.058 0 0 1 10.541 3.212 A 0.071 0.071 0 0 1 10.541 3.208 Q 10.541 3.177 10.559 3.161 A 0.06 0.06 0 0 1 10.582 3.148 Q 10.591 3.145 10.602 3.144 A 0.124 0.124 0 0 1 10.611 3.144 A 0.108 0.108 0 0 1 10.625 3.145 A 0.082 0.082 0 0 1 10.637 3.147 Z M 11.026 3.312 A 0.092 0.092 0 0 1 11.013 3.313 A 0.038 0.038 0 0 1 11.007 3.313 A 0.026 0.026 0 0 1 10.991 3.304 Q 10.985 3.298 10.984 3.289 A 0.057 0.057 0 0 1 10.983 3.279 L 10.983 3.169 L 11.037 3.169 L 11.037 3.147 L 10.983 3.147 L 10.983 3.104 L 10.967 3.104 L 10.955 3.144 L 10.928 3.156 L 10.928 3.169 L 10.955 3.169 L 10.955 3.28 Q 10.955 3.324 10.987 3.334 A 0.074 0.074 0 0 0 11.009 3.337 A 0.088 0.088 0 0 0 11.017 3.336 A 0.122 0.122 0 0 0 11.025 3.335 A 0.105 0.105 0 0 0 11.026 3.335 Q 11.031 3.334 11.035 3.333 A 0.028 0.028 0 0 0 11.038 3.331 L 11.038 3.31 A 0.059 0.059 0 0 1 11.035 3.311 A 0.098 0.098 0 0 0 11.035 3.311 M 10.427 3.146 L 10.423 3.172 A 0.124 0.124 0 0 0 10.414 3.17 Q 10.41 3.17 10.406 3.17 A 0.066 0.066 0 0 0 10.403 3.17 A 0.049 0.049 0 0 0 10.367 3.185 A 0.067 0.067 0 0 0 10.364 3.188 A 0.064 0.064 0 0 0 10.349 3.224 A 0.085 0.085 0 0 0 10.348 3.234 L 10.348 3.333 L 10.32 3.333 L 10.32 3.147 L 10.343 3.147 L 10.346 3.182 L 10.348 3.182 A 0.095 0.095 0 0 1 10.358 3.167 A 0.073 0.073 0 0 1 10.373 3.154 Q 10.387 3.144 10.405 3.144 Q 10.417 3.144 10.427 3.146 Z M 10.49 3.147 L 10.49 3.333 L 10.462 3.333 L 10.462 3.147 L 10.49 3.147 Z M 10.628 3.329 L 10.594 3.329 Q 10.58 3.329 10.57 3.334 A 0.033 0.033 0 0 0 10.564 3.338 A 0.03 0.03 0 0 0 10.554 3.355 A 0.045 0.045 0 0 0 10.553 3.364 A 0.028 0.028 0 0 0 10.555 3.375 Q 10.558 3.382 10.564 3.386 A 0.033 0.033 0 0 0 10.566 3.387 A 0.045 0.045 0 0 0 10.577 3.392 Q 10.588 3.395 10.602 3.395 A 0.189 0.189 0 0 0 10.621 3.394 Q 10.639 3.392 10.651 3.387 A 0.047 0.047 0 0 0 10.655 3.384 A 0.041 0.041 0 0 0 10.664 3.377 A 0.031 0.031 0 0 0 10.672 3.356 A 0.038 0.038 0 0 0 10.671 3.348 Q 10.67 3.344 10.668 3.341 A 0.018 0.018 0 0 0 10.663 3.335 A 0.027 0.027 0 0 0 10.656 3.332 Q 10.65 3.33 10.639 3.329 A 0.179 0.179 0 0 0 10.628 3.329 Z M 10.575 3.231 A 0.03 0.03 0 0 0 10.58 3.236 Q 10.589 3.245 10.606 3.246 A 0.072 0.072 0 0 0 10.61 3.246 A 0.061 0.061 0 0 0 10.626 3.244 Q 10.645 3.239 10.65 3.221 A 0.057 0.057 0 0 0 10.651 3.206 A 0.061 0.061 0 0 0 10.649 3.19 Q 10.644 3.171 10.625 3.166 A 0.061 0.061 0 0 0 10.61 3.165 A 0.059 0.059 0 0 0 10.598 3.166 Q 10.586 3.168 10.579 3.175 Q 10.57 3.184 10.569 3.201 A 0.074 0.074 0 0 0 10.569 3.207 Q 10.569 3.222 10.575 3.231 Z M 10.459 3.097 Q 10.459 3.087 10.464 3.083 A 0.016 0.016 0 0 1 10.474 3.078 A 0.021 0.021 0 0 1 10.476 3.078 A 0.017 0.017 0 0 1 10.488 3.083 Q 10.492 3.087 10.492 3.094 A 0.032 0.032 0 0 1 10.492 3.097 A 0.029 0.029 0 0 1 10.492 3.102 Q 10.491 3.105 10.49 3.108 A 0.014 0.014 0 0 1 10.488 3.111 A 0.016 0.016 0 0 1 10.476 3.116 A 0.018 0.018 0 0 1 10.47 3.115 A 0.016 0.016 0 0 1 10.464 3.111 A 0.015 0.015 0 0 1 10.46 3.105 Q 10.46 3.103 10.459 3.1 A 0.033 0.033 0 0 1 10.459 3.097 Z M 11.027 3.312 Q 11.029 3.312 11.031 3.312" id="right_labelLayer" stroke="#777777" fill="#777777" style="stroke:#777777;fill:#777777" vector-effect="non-scaling-stroke"/><path d="M 11.79 9.618 L 11.79 10.007 L 11.672 10.007 L 11.672 10.729 L 11.79 10.729 L 11.79 11.118 L 12.54 11.118 L 12.54 11.236 L 13.263 11.236 L 13.263 11.118 L 13.985 11.118 L 13.985 11.236 L 14.708 11.236 L 14.708 11.118 L 15.431 11.118 L 15.431 11.236 L 16.154 11.236 L 16.154 11.118 L 16.876 11.118 L 16.876 11.236 L 17.599 11.236 L 17.599 11.118 L 18.322 11.118 L 18.322 11.236 L 19.045 11.236 L 19.045 11.118 L 19.767 11.118 L 19.767 11.236 L 20.49 11.236 L 20.49 11.118 L 21.24 11.118 L 21.24 10.729 L 21.358 10.729 L 21.358 10.007 L 21.24 10.007 L 21.24 9.618 L 20.49 9.618 L 20.49 9.5 L 19.767 9.5 L 19.767 9.618 L 19.045 9.618 L 19.045 9.5 L 18.322 9.5 L 18.322 9.618 L 17.599 9.618 L 17.599 9.5 L 16.876 9.5 L 16.876 9.618 L 16.154 9.618 L 16.154 9.5 L 15.431 9.5 L 15.431 9.618 L 14.708 9.618 L 14.708 9.5 L 13.985 9.5 L 13.985 9.618 L 13.263 9.618 L 13.263 9.5 L 12.54 9.5 L 12.54 9.618 L 11.79 9.618 Z" id="bottom_outsideCutPath" stroke="#FF0000" stroke-width="0.1" style="stroke:#FF0000;stroke-width:0.1" vector-effect="non-scaling-stroke"/><path d="M 17.086 10.498 L 17.058 10.498 L 17.058 10.377 A 0.083 0.083 0 0 0 17.057 10.365 Q 17.055 10.352 17.049 10.344 A 0.03 0.03 0 0 0 17.035 10.335 Q 17.028 10.333 17.019 10.333 A 0.072 0.072 0 0 0 17.004 10.334 Q 16.989 10.337 16.98 10.348 A 0.047 0.047 0 0 0 16.972 10.362 Q 16.97 10.369 16.969 10.377 A 0.124 0.124 0 0 0 16.968 10.394 L 16.968 10.498 L 16.94 10.498 L 16.94 10.377 A 0.083 0.083 0 0 0 16.939 10.365 Q 16.937 10.352 16.93 10.344 Q 16.921 10.333 16.9 10.333 A 0.07 0.07 0 0 0 16.886 10.334 Q 16.87 10.338 16.862 10.349 A 0.047 0.047 0 0 0 16.855 10.362 Q 16.849 10.377 16.849 10.401 L 16.849 10.498 L 16.821 10.498 L 16.821 10.312 L 16.844 10.312 L 16.849 10.338 L 16.85 10.338 A 0.055 0.055 0 0 1 16.872 10.317 A 0.067 0.067 0 0 1 16.899 10.309 A 0.081 0.081 0 0 1 16.905 10.309 A 0.092 0.092 0 0 1 16.926 10.311 Q 16.938 10.314 16.947 10.321 A 0.048 0.048 0 0 1 16.962 10.341 L 16.963 10.341 A 0.059 0.059 0 0 1 16.985 10.319 A 0.071 0.071 0 0 1 16.987 10.317 A 0.071 0.071 0 0 1 17.013 10.31 A 0.089 0.089 0 0 1 17.023 10.309 Q 17.055 10.309 17.07 10.325 Q 17.086 10.341 17.086 10.377 L 17.086 10.498 Z M 15.972 10.474 L 15.97 10.474 L 15.964 10.498 L 15.944 10.498 L 15.944 10.234 L 15.972 10.234 L 15.972 10.298 Q 15.972 10.32 15.971 10.337 L 15.972 10.337 A 0.064 0.064 0 0 1 16.019 10.31 A 0.096 0.096 0 0 1 16.03 10.309 A 0.086 0.086 0 0 1 16.055 10.313 A 0.064 0.064 0 0 1 16.087 10.334 A 0.083 0.083 0 0 1 16.102 10.362 Q 16.107 10.381 16.107 10.405 Q 16.107 10.451 16.087 10.476 Q 16.067 10.502 16.03 10.502 A 0.085 0.085 0 0 1 16.009 10.499 A 0.074 0.074 0 0 1 15.997 10.495 Q 15.982 10.488 15.972 10.474 Z M 16.44 10.477 A 0.092 0.092 0 0 1 16.426 10.478 A 0.038 0.038 0 0 1 16.421 10.478 A 0.026 0.026 0 0 1 16.404 10.469 Q 16.399 10.463 16.397 10.454 A 0.057 0.057 0 0 1 16.396 10.444 L 16.396 10.334 L 16.45 10.334 L 16.45 10.312 L 16.396 10.312 L 16.396 10.269 L 16.38 10.269 L 16.368 10.309 L 16.342 10.321 L 16.342 10.334 L 16.368 10.334 L 16.368 10.445 Q 16.368 10.489 16.401 10.499 A 0.074 0.074 0 0 0 16.422 10.502 A 0.088 0.088 0 0 0 16.43 10.501 A 0.122 0.122 0 0 0 16.438 10.5 A 0.105 0.105 0 0 0 16.44 10.5 Q 16.445 10.499 16.448 10.498 A 0.028 0.028 0 0 0 16.452 10.497 L 16.452 10.475 A 0.059 0.059 0 0 1 16.448 10.476 A 0.098 0.098 0 0 0 16.448 10.476 M 16.562 10.477 A 0.092 0.092 0 0 1 16.549 10.478 A 0.038 0.038 0 0 1 16.543 10.478 A 0.026 0.026 0 0 1 16.527 10.469 Q 16.522 10.463 16.52 10.454 A 0.057 0.057 0 0 1 16.519 10.444 L 16.519 10.334 L 16.573 10.334 L 16.573 10.312 L 16.519 10.312 L 16.519 10.269 L 16.503 10.269 L 16.491 10.309 L 16.464 10.321 L 16.464 10.334 L 16.491 10.334 L 16.491 10.445 Q 16.491 10.489 16.523 10.499 A 0.074 0.074 0 0 0 16.545 10.502 A 0.088 0.088 0 0 0 16.553 10.501 A 0.122 0.122 0 0 0 16.561 10.5 A 0.105 0.105 0 0 0 16.563 10.5 Q 16.568 10.499 16.571 10.498 A 0.028 0.028 0 0 0 16.574 10.497 L 16.574 10.475 A 0.059 0.059 0 0 1 16.571 10.476 A 0.098 0.098 0 0 0 16.571 10.476 M 16.314 10.433 A 0.145 0.145 0 0 0 16.317 10.405 Q 16.317 10.387 16.313 10.372 A 0.088 0.088 0 0 0 16.294 10.335 A 0.074 0.074 0 0 0 16.26 10.313 A 0.095 0.095 0 0 0 16.232 10.309 A 0.109 0.109 0 0 0 16.212 10.311 A 0.074 0.074 0 0 0 16.169 10.334 Q 16.154 10.351 16.149 10.377 A 0.146 0.146 0 0 0 16.146 10.405 A 0.141 0.141 0 0 0 16.148 10.428 A 0.104 0.104 0 0 0 16.157 10.456 A 0.092 0.092 0 0 0 16.159 10.46 A 0.076 0.076 0 0 0 16.187 10.49 A 0.078 0.078 0 0 0 16.205 10.498 A 0.09 0.09 0 0 0 16.231 10.502 A 0.109 0.109 0 0 0 16.25 10.5 A 0.075 0.075 0 0 0 16.294 10.476 Q 16.309 10.459 16.314 10.433 Z M 16.769 10.433 A 0.145 0.145 0 0 0 16.772 10.405 Q 16.772 10.387 16.768 10.372 A 0.088 0.088 0 0 0 16.749 10.335 A 0.074 0.074 0 0 0 16.715 10.313 A 0.095 0.095 0 0 0 16.687 10.309 A 0.109 0.109 0 0 0 16.667 10.311 A 0.074 0.074 0 0 0 16.624 10.334 Q 16.609 10.351 16.604 10.377 A 0.146 0.146 0 0 0 16.601 10.405 A 0.141 0.141 0 0 0 16.603 10.428 A 0.104 0.104 0 0 0 16.612 10.456 A 0.092 0.092 0 0 0 16.614 10.46 A 0.076 0.076 0 0 0 16.641 10.49 A 0.078 0.078 0 0 0 16.659 10.498 A 0.09 0.09 0 0 0 16.686 10.502 A 0.109 0.109 0 0 0 16.705 10.5 A 0.075 0.075 0 0 0 16.749 10.476 Q 16.764 10.459 16.769 10.433 Z M 16.175 10.405 A 0.142 0.142 0 0 0 16.177 10.425 Q 16.18 10.446 16.19 10.459 A 0.046 0.046 0 0 0 16.22 10.477 A 0.07 0.07 0 0 0 16.232 10.478 A 0.065 0.065 0 0 0 16.249 10.476 A 0.045 0.045 0 0 0 16.274 10.459 A 0.06 0.06 0 0 0 16.283 10.441 Q 16.288 10.426 16.288 10.405 A 0.14 0.14 0 0 0 16.286 10.385 Q 16.283 10.364 16.274 10.351 Q 16.259 10.333 16.231 10.333 Q 16.204 10.333 16.189 10.351 Q 16.179 10.364 16.177 10.386 A 0.149 0.149 0 0 0 16.175 10.405 Z M 16.63 10.405 A 0.142 0.142 0 0 0 16.632 10.425 Q 16.635 10.446 16.645 10.459 A 0.046 0.046 0 0 0 16.675 10.477 A 0.07 0.07 0 0 0 16.686 10.478 A 0.065 0.065 0 0 0 16.704 10.476 A 0.045 0.045 0 0 0 16.728 10.459 A 0.06 0.06 0 0 0 16.738 10.441 Q 16.743 10.426 16.743 10.405 A 0.14 0.14 0 0 0 16.741 10.385 Q 16.738 10.364 16.728 10.351 Q 16.714 10.333 16.686 10.333 Q 16.658 10.333 16.644 10.351 Q 16.634 10.364 16.631 10.386 A 0.149 0.149 0 0 0 16.63 10.405 Z M 16.026 10.333 A 0.079 0.079 0 0 0 16.011 10.334 Q 16.002 10.336 15.996 10.34 A 0.037 0.037 0 0 0 15.985 10.349 A 0.048 0.048 0 0 0 15.978 10.363 Q 15.973 10.376 15.972 10.396 A 0.217 0.217 0 0 0 15.972 10.405 Q 15.972 10.438 15.981 10.456 A 0.042 0.042 0 0 0 15.985 10.461 A 0.041 0.041 0 0 0 16.006 10.475 Q 16.013 10.477 16.021 10.478 A 0.09 0.09 0 0 0 16.027 10.478 A 0.056 0.056 0 0 0 16.043 10.476 A 0.04 0.04 0 0 0 16.066 10.459 Q 16.078 10.44 16.078 10.405 A 0.166 0.166 0 0 0 16.077 10.386 Q 16.075 10.363 16.066 10.351 A 0.041 0.041 0 0 0 16.039 10.334 A 0.065 0.065 0 0 0 16.026 10.333 Z M 16.441 10.477 Q 16.443 10.477 16.445 10.477 M 16.563 10.477 Q 16.565 10.477 16.567 10.477" id="bottom_labelLayer" stroke="#777777" fill="#777777" style="stroke:#777777;fill:#777777" vector-effect="non-scaling-stroke"/></g></svg>